# xmcd
# 
# Track frame offsets:
#     150
#     21195
#     39642
#     59512
#     78400
#     94037
#     114670
#     129590
#     147912
#     167775
#     187552
# 
# Disc length: 2965
# 
# Revision: 5
# Processed by: cddbd v1.5.2PL0 Copyright (c) Steve Scherf et al.
# Submitted via: BonkEnc v1.0.15
# 
DISCID=8e0b930b
DTITLE=David Bowie za - Reality
DYEAR=2003
DGENRE=Rock
TTITLE0=New Killer Star
TTITLE1=Pablo Picasso
TTITLE2=Never Get Old
TTITLE3=The Loneliest Guy
TTITLE4=Looking For Water
TTITLE5=She'll Drive The Big Car
TTITLE6=Days
TTITLE7=Fall Dog Bombs The Moon
TTITLE8=Try Some, Buy Some
TTITLE9=Reality
TTITLE10=Bring Me The Disco King
EXTD=
EXTT0=
EXTT1=
EXTT2=
EXTT3=
EXTT4=
EXTT5=
EXTT6=
EXTT7=
EXTT8=
EXTT9=
EXTT10=
PLAYORDER=
